<svg xmlns="http://www.w3.org/2000/svg" width="520" height="300" viewBox="0 0 520 300" role="img" aria-labelledby="title desc">
  <title id="title">Web SUMP logic analyzer</title>
  <desc id="desc">Digital waveform traces displayed in a browser logic analyzer using SUMP and VCD capture data.</desc>
  <rect width="520" height="300" rx="18" fill="#10151b"/>
  <rect x="32" y="36" width="456" height="228" rx="14" fill="#070a0d" stroke="#30404c" stroke-width="2"/>
  <g stroke="#1e2a32" stroke-width="1">
    <path d="M86 54v192M156 54v192M226 54v192M296 54v192M366 54v192M436 54v192"/>
    <path d="M56 84h404M56 132h404M56 180h404M56 228h404"/>
  </g>
  <g fill="none" stroke-linecap="round" stroke-linejoin="round" stroke-width="6">
    <path d="M62 88h48v36h70V88h54v36h74V88h92v36h58" stroke="#8ab4ff"/>
    <path d="M62 154h88v-36h52v36h114v-36h74v36h68" stroke="#00ffcc"/>
    <path d="M62 218h34v-36h120v36h44v-36h126v36h72" stroke="#ffd166"/>
  </g>
  <text x="58" y="68" fill="#d9e8ff" font-family="Menlo, Courier New, monospace" font-size="15" font-weight="700">D0</text>
  <text x="58" y="140" fill="#d8fff2" font-family="Menlo, Courier New, monospace" font-size="15" font-weight="700">D1</text>
  <text x="58" y="205" fill="#fff4bd" font-family="Menlo, Courier New, monospace" font-size="15" font-weight="700">D2</text>
</svg>
