<svg xmlns="http://www.w3.org/2000/svg" width="520" height="300" viewBox="0 0 520 300" role="img" aria-labelledby="title desc">
  <title id="title">Web SPI flash programmer</title>
  <desc id="desc">An SPI flash memory chip connected to a browser-based programmer for probing, reading and writing firmware.</desc>
  <rect width="520" height="300" rx="18" fill="#14130f"/>
  <rect x="28" y="34" width="464" height="220" rx="14" fill="#070705" stroke="#3b3522" stroke-width="2"/>
  <g stroke="#252111" stroke-width="1">
    <path d="M58 78h404M58 118h404M58 158h404M58 198h404"/>
    <path d="M100 58v176M168 58v176M236 58v176M304 58v176M372 58v176M440 58v176"/>
  </g>
  <rect x="160" y="68" width="200" height="160" rx="16" fill="#0b0d0c" stroke="#ffd166" stroke-width="4"/>
  <rect x="196" y="104" width="128" height="88" rx="8" fill="#1b1d16" stroke="#5f5630" stroke-width="2"/>
  <text x="260" y="140" fill="#fff4bd" font-family="Menlo, Courier New, monospace" font-size="24" font-weight="700" text-anchor="middle">SPI</text>
  <text x="260" y="169" fill="#ffd166" font-family="Menlo, Courier New, monospace" font-size="18" font-weight="700" text-anchor="middle">FLASH</text>
  <g stroke="#ffd166" stroke-width="6" stroke-linecap="round">
    <path d="M120 92h40M120 124h40M120 156h40M120 188h40"/>
    <path d="M360 92h40M360 124h40M360 156h40M360 188h40"/>
  </g>
</svg>
